<mxfile modified="2024-07-08T14:18:41.718Z" host="app.diagrams.net" agent="Mozilla/5.0 (Macintosh; Intel Mac OS X 10_15_7) AppleWebKit/537.36 (KHTML, like Gecko) Chrome/126.0.0.0 Safari/537.36" etag="kBL3JcHtlA8o3h9szb5R" version="24.6.4" type="github" pages="2">
  <diagram id="Ht1M8jgEwFfnCIfOTk4-" name="Page-1">
    <mxGraphModel dx="3190" dy="1510" grid="1" gridSize="10" guides="1" tooltips="1" connect="1" arrows="1" fold="1" page="1" pageScale="1" pageWidth="3150" pageHeight="1169" math="0" shadow="0">
      <root>
        <mxCell id="0" />
        <mxCell id="1" parent="0" />
        <mxCell id="EPNJKxrRpqHv5ameMNeh-118" value="" style="rounded=1;arcSize=10;dashed=1;strokeColor=#F59D56;fillColor=none;gradientColor=none;dashPattern=8 4;strokeWidth=2;" parent="1" vertex="1">
          <mxGeometry x="2190" y="252.5" width="780" height="520" as="geometry" />
        </mxCell>
        <mxCell id="EPNJKxrRpqHv5ameMNeh-121" value="AWS FARGATE" style="whiteSpace=wrap;html=1;dashed=1;dashPattern=12 12;fillColor=none;" parent="1" vertex="1">
          <mxGeometry x="2206" y="260" width="734" height="492.5" as="geometry" />
        </mxCell>
        <mxCell id="EPNJKxrRpqHv5ameMNeh-32" value="" style="rounded=1;arcSize=10;dashed=1;strokeColor=#F59D56;fillColor=none;gradientColor=none;dashPattern=8 4;strokeWidth=2;" parent="1" vertex="1">
          <mxGeometry x="636" y="240" width="714" height="552.5" as="geometry" />
        </mxCell>
        <mxCell id="EPNJKxrRpqHv5ameMNeh-36" value="AWS FARGATE" style="whiteSpace=wrap;html=1;dashed=1;dashPattern=12 12;fillColor=none;" parent="1" vertex="1">
          <mxGeometry x="652" y="260" width="658" height="512.5" as="geometry" />
        </mxCell>
        <mxCell id="EPNJKxrRpqHv5ameMNeh-1" value="CI/CD &amp;amp; Solution Architecture" style="text;html=1;resizable=0;points=[];autosize=1;align=left;verticalAlign=top;spacingTop=-4;fontSize=30;fontStyle=1" parent="1" vertex="1">
          <mxGeometry x="252.5" y="27" width="450" height="40" as="geometry" />
        </mxCell>
        <mxCell id="EPNJKxrRpqHv5ameMNeh-2" value="PLAYGROUND - NAWEL&lt;br&gt;Dentsu Creative&lt;br&gt;Architect: Eduardo Medina" style="text;html=1;resizable=0;points=[];autosize=1;align=left;verticalAlign=top;spacingTop=-4;fontSize=16;" parent="1" vertex="1">
          <mxGeometry x="252.5" y="77" width="210" height="70" as="geometry" />
        </mxCell>
        <mxCell id="EPNJKxrRpqHv5ameMNeh-3" value="AWS Cloud" style="points=[[0,0],[0.25,0],[0.5,0],[0.75,0],[1,0],[1,0.25],[1,0.5],[1,0.75],[1,1],[0.75,1],[0.5,1],[0.25,1],[0,1],[0,0.75],[0,0.5],[0,0.25]];outlineConnect=0;gradientColor=none;html=1;whiteSpace=wrap;fontSize=12;fontStyle=0;container=0;pointerEvents=0;collapsible=0;recursiveResize=0;shape=mxgraph.aws4.group;grIcon=mxgraph.aws4.group_region;strokeColor=#147EBA;fillColor=none;verticalAlign=top;align=left;spacingLeft=30;fontColor=#147EBA;dashed=1;movable=1;resizable=1;rotatable=1;deletable=1;editable=1;connectable=1;" parent="1" vertex="1">
          <mxGeometry x="236" y="182.5" width="2774" height="977.5" as="geometry" />
        </mxCell>
        <mxCell id="EPNJKxrRpqHv5ameMNeh-48" value="QA and Testing" style="sketch=0;pointerEvents=1;shadow=0;dashed=0;html=1;strokeColor=none;labelPosition=center;verticalLabelPosition=bottom;verticalAlign=top;outlineConnect=0;align=center;shape=mxgraph.office.users.users;fillColor=#2072B8;" parent="1" vertex="1">
          <mxGeometry x="112" y="677" width="64" height="67" as="geometry" />
        </mxCell>
        <mxCell id="EPNJKxrRpqHv5ameMNeh-49" style="edgeStyle=orthogonalEdgeStyle;rounded=0;orthogonalLoop=1;jettySize=auto;html=1;" parent="1" source="EPNJKxrRpqHv5ameMNeh-48" target="EPNJKxrRpqHv5ameMNeh-38" edge="1">
          <mxGeometry relative="1" as="geometry">
            <mxPoint x="190" y="711" as="sourcePoint" />
          </mxGeometry>
        </mxCell>
        <mxCell id="EPNJKxrRpqHv5ameMNeh-50" style="edgeStyle=orthogonalEdgeStyle;rounded=0;orthogonalLoop=1;jettySize=auto;html=1;" parent="1" source="EPNJKxrRpqHv5ameMNeh-52" target="EPNJKxrRpqHv5ameMNeh-60" edge="1">
          <mxGeometry relative="1" as="geometry" />
        </mxCell>
        <mxCell id="EPNJKxrRpqHv5ameMNeh-51" style="edgeStyle=orthogonalEdgeStyle;rounded=0;orthogonalLoop=1;jettySize=auto;html=1;entryX=0;entryY=0.5;entryDx=0;entryDy=0;entryPerimeter=0;" parent="1" source="EPNJKxrRpqHv5ameMNeh-52" target="EPNJKxrRpqHv5ameMNeh-57" edge="1">
          <mxGeometry relative="1" as="geometry" />
        </mxCell>
        <mxCell id="EPNJKxrRpqHv5ameMNeh-52" value="Buiil, Test, and Push to ECR" style="sketch=0;points=[[0,0,0],[0.25,0,0],[0.5,0,0],[0.75,0,0],[1,0,0],[0,1,0],[0.25,1,0],[0.5,1,0],[0.75,1,0],[1,1,0],[0,0.25,0],[0,0.5,0],[0,0.75,0],[1,0.25,0],[1,0.5,0],[1,0.75,0]];outlineConnect=0;fontColor=#232F3E;gradientColor=#4D72F3;gradientDirection=north;fillColor=#3334B9;strokeColor=#ffffff;dashed=0;verticalLabelPosition=bottom;verticalAlign=top;align=center;html=1;fontSize=12;fontStyle=0;aspect=fixed;shape=mxgraph.aws4.resourceIcon;resIcon=mxgraph.aws4.codebuild;" parent="1" vertex="1">
          <mxGeometry x="1521" y="1020" width="78" height="78" as="geometry" />
        </mxCell>
        <mxCell id="EPNJKxrRpqHv5ameMNeh-53" style="edgeStyle=orthogonalEdgeStyle;rounded=0;orthogonalLoop=1;jettySize=auto;html=1;" parent="1" source="EPNJKxrRpqHv5ameMNeh-54" target="EPNJKxrRpqHv5ameMNeh-52" edge="1">
          <mxGeometry relative="1" as="geometry" />
        </mxCell>
        <mxCell id="EPNJKxrRpqHv5ameMNeh-54" value="Pipeline" style="sketch=0;points=[[0,0,0],[0.25,0,0],[0.5,0,0],[0.75,0,0],[1,0,0],[0,1,0],[0.25,1,0],[0.5,1,0],[0.75,1,0],[1,1,0],[0,0.25,0],[0,0.5,0],[0,0.75,0],[1,0.25,0],[1,0.5,0],[1,0.75,0]];outlineConnect=0;fontColor=#232F3E;gradientColor=#4D72F3;gradientDirection=north;fillColor=#3334B9;strokeColor=#ffffff;dashed=0;verticalLabelPosition=bottom;verticalAlign=top;align=center;html=1;fontSize=12;fontStyle=0;aspect=fixed;shape=mxgraph.aws4.resourceIcon;resIcon=mxgraph.aws4.codepipeline;" parent="1" vertex="1">
          <mxGeometry x="1326" y="1020" width="78" height="78" as="geometry" />
        </mxCell>
        <mxCell id="EPNJKxrRpqHv5ameMNeh-55" style="edgeStyle=orthogonalEdgeStyle;rounded=0;orthogonalLoop=1;jettySize=auto;html=1;entryX=0.75;entryY=1;entryDx=0;entryDy=0;" parent="1" source="EPNJKxrRpqHv5ameMNeh-57" target="EPNJKxrRpqHv5ameMNeh-36" edge="1">
          <mxGeometry relative="1" as="geometry">
            <Array as="points">
              <mxPoint x="1765" y="1150" />
              <mxPoint x="798" y="1150" />
            </Array>
          </mxGeometry>
        </mxCell>
        <mxCell id="EPNJKxrRpqHv5ameMNeh-56" style="edgeStyle=orthogonalEdgeStyle;rounded=0;orthogonalLoop=1;jettySize=auto;html=1;entryX=0.1;entryY=0.5;entryDx=0;entryDy=0;entryPerimeter=0;" parent="1" source="EPNJKxrRpqHv5ameMNeh-57" target="EPNJKxrRpqHv5ameMNeh-45" edge="1">
          <mxGeometry relative="1" as="geometry">
            <Array as="points">
              <mxPoint x="1849" y="1062" />
            </Array>
          </mxGeometry>
        </mxCell>
        <mxCell id="EPNJKxrRpqHv5ameMNeh-57" value="Deploy to Test" style="sketch=0;points=[[0,0,0],[0.25,0,0],[0.5,0,0],[0.75,0,0],[1,0,0],[0,1,0],[0.25,1,0],[0.5,1,0],[0.75,1,0],[1,1,0],[0,0.25,0],[0,0.5,0],[0,0.75,0],[1,0.25,0],[1,0.5,0],[1,0.75,0]];outlineConnect=0;fontColor=#232F3E;gradientColor=#4D72F3;gradientDirection=north;fillColor=#3334B9;strokeColor=#ffffff;dashed=0;verticalLabelPosition=bottom;verticalAlign=top;align=center;html=1;fontSize=12;fontStyle=0;aspect=fixed;shape=mxgraph.aws4.resourceIcon;resIcon=mxgraph.aws4.codedeploy;" parent="1" vertex="1">
          <mxGeometry x="1726" y="1020" width="78" height="78" as="geometry" />
        </mxCell>
        <mxCell id="EPNJKxrRpqHv5ameMNeh-58" style="edgeStyle=orthogonalEdgeStyle;rounded=0;orthogonalLoop=1;jettySize=auto;html=1;" parent="1" source="EPNJKxrRpqHv5ameMNeh-60" target="EPNJKxrRpqHv5ameMNeh-32" edge="1">
          <mxGeometry relative="1" as="geometry">
            <Array as="points">
              <mxPoint x="1530" y="533" />
            </Array>
          </mxGeometry>
        </mxCell>
        <mxCell id="EPNJKxrRpqHv5ameMNeh-59" style="edgeStyle=orthogonalEdgeStyle;rounded=0;orthogonalLoop=1;jettySize=auto;html=1;entryX=0.5;entryY=1;entryDx=0;entryDy=0;" parent="1" source="EPNJKxrRpqHv5ameMNeh-60" edge="1">
          <mxGeometry relative="1" as="geometry">
            <mxPoint x="2160" y="790" as="targetPoint" />
          </mxGeometry>
        </mxCell>
        <mxCell id="EPNJKxrRpqHv5ameMNeh-60" value="" style="sketch=0;points=[[0,0,0],[0.25,0,0],[0.5,0,0],[0.75,0,0],[1,0,0],[0,1,0],[0.25,1,0],[0.5,1,0],[0.75,1,0],[1,1,0],[0,0.25,0],[0,0.5,0],[0,0.75,0],[1,0.25,0],[1,0.5,0],[1,0.75,0]];outlineConnect=0;fontColor=#232F3E;gradientColor=#F78E04;gradientDirection=north;fillColor=#D05C17;strokeColor=#ffffff;dashed=0;verticalLabelPosition=bottom;verticalAlign=top;align=center;html=1;fontSize=12;fontStyle=0;aspect=fixed;shape=mxgraph.aws4.resourceIcon;resIcon=mxgraph.aws4.ecr;" parent="1" vertex="1">
          <mxGeometry x="1521" y="870" width="78" height="78" as="geometry" />
        </mxCell>
        <mxCell id="EPNJKxrRpqHv5ameMNeh-61" style="edgeStyle=orthogonalEdgeStyle;rounded=0;orthogonalLoop=1;jettySize=auto;html=1;entryX=0;entryY=0.5;entryDx=0;entryDy=0;entryPerimeter=0;" parent="1" source="EPNJKxrRpqHv5ameMNeh-62" target="EPNJKxrRpqHv5ameMNeh-54" edge="1">
          <mxGeometry relative="1" as="geometry" />
        </mxCell>
        <mxCell id="EPNJKxrRpqHv5ameMNeh-62" value="Repository" style="image;html=1;image=img/lib/atlassian/Bitbucket_Logo.svg;" parent="1" vertex="1">
          <mxGeometry x="1126" y="1019" width="90" height="80" as="geometry" />
        </mxCell>
        <mxCell id="EPNJKxrRpqHv5ameMNeh-98" style="edgeStyle=orthogonalEdgeStyle;rounded=0;orthogonalLoop=1;jettySize=auto;html=1;entryX=0.75;entryY=1;entryDx=0;entryDy=0;" parent="1" source="EPNJKxrRpqHv5ameMNeh-42" edge="1">
          <mxGeometry relative="1" as="geometry">
            <mxPoint x="2215" y="790" as="targetPoint" />
          </mxGeometry>
        </mxCell>
        <mxCell id="EPNJKxrRpqHv5ameMNeh-99" value="Env - Test" style="text;html=1;resizable=0;points=[];autosize=1;align=left;verticalAlign=top;spacingTop=-4;fontSize=16;" parent="1" vertex="1">
          <mxGeometry x="820" y="140" width="90" height="30" as="geometry" />
        </mxCell>
        <mxCell id="EPNJKxrRpqHv5ameMNeh-100" value="Env - Production" style="text;html=1;resizable=0;points=[];autosize=1;align=left;verticalAlign=top;spacingTop=-4;fontSize=16;" parent="1" vertex="1">
          <mxGeometry x="2220" y="147" width="140" height="30" as="geometry" />
        </mxCell>
        <mxCell id="EPNJKxrRpqHv5ameMNeh-101" style="edgeStyle=orthogonalEdgeStyle;rounded=0;orthogonalLoop=1;jettySize=auto;html=1;" parent="1" source="EPNJKxrRpqHv5ameMNeh-47" target="EPNJKxrRpqHv5ameMNeh-62" edge="1">
          <mxGeometry relative="1" as="geometry">
            <Array as="points">
              <mxPoint x="1050" y="1059" />
              <mxPoint x="1050" y="1059" />
            </Array>
          </mxGeometry>
        </mxCell>
        <mxCell id="EPNJKxrRpqHv5ameMNeh-4" value="" style="rounded=1;arcSize=10;dashed=1;dashPattern=8 4;strokeWidth=2;movable=1;resizable=1;rotatable=1;deletable=1;editable=1;locked=0;connectable=1;fillColor=none;strokeColor=#b85450;" parent="1" vertex="1">
          <mxGeometry x="920" y="840" width="1450" height="282.5" as="geometry" />
        </mxCell>
        <mxCell id="EPNJKxrRpqHv5ameMNeh-5" value="VPC Test" style="points=[[0,0],[0.25,0],[0.5,0],[0.75,0],[1,0],[1,0.25],[1,0.5],[1,0.75],[1,1],[0.75,1],[0.5,1],[0.25,1],[0,1],[0,0.75],[0,0.5],[0,0.25]];outlineConnect=0;gradientColor=none;html=1;whiteSpace=wrap;fontSize=12;fontStyle=0;container=0;pointerEvents=0;collapsible=0;recursiveResize=0;shape=mxgraph.aws4.group;grIcon=mxgraph.aws4.group_vpc;strokeColor=#248814;fillColor=none;verticalAlign=top;align=left;spacingLeft=30;fontColor=#AAB7B8;dashed=0;movable=1;resizable=1;rotatable=1;deletable=1;editable=1;connectable=1;locked=0;" parent="1" vertex="1">
          <mxGeometry x="276" y="222.5" width="1194" height="590" as="geometry" />
        </mxCell>
        <mxCell id="EPNJKxrRpqHv5ameMNeh-37" style="edgeStyle=orthogonalEdgeStyle;rounded=0;orthogonalLoop=1;jettySize=auto;html=1;" parent="1" source="EPNJKxrRpqHv5ameMNeh-38" target="EPNJKxrRpqHv5ameMNeh-31" edge="1">
          <mxGeometry relative="1" as="geometry">
            <Array as="points">
              <mxPoint x="436" y="710.5" />
              <mxPoint x="436" y="710.5" />
            </Array>
          </mxGeometry>
        </mxCell>
        <mxCell id="EPNJKxrRpqHv5ameMNeh-38" value="" style="outlineConnect=0;dashed=0;verticalLabelPosition=bottom;verticalAlign=top;align=center;html=1;shape=mxgraph.aws3.internet_gateway;fillColor=#F58536;gradientColor=none;" parent="1" vertex="1">
          <mxGeometry x="246" y="674.5" width="69" height="72" as="geometry" />
        </mxCell>
        <mxCell id="EPNJKxrRpqHv5ameMNeh-39" value="Integracion y despliegue continuo (CI/CD)" style="text;html=1;strokeColor=none;fillColor=none;align=center;verticalAlign=middle;whiteSpace=wrap;rounded=0;" parent="1" vertex="1">
          <mxGeometry x="934" y="850" width="166" height="30" as="geometry" />
        </mxCell>
        <mxCell id="EPNJKxrRpqHv5ameMNeh-40" value="" style="edgeStyle=orthogonalEdgeStyle;rounded=0;orthogonalLoop=1;jettySize=auto;html=1;" parent="1" source="EPNJKxrRpqHv5ameMNeh-41" target="EPNJKxrRpqHv5ameMNeh-42" edge="1">
          <mxGeometry relative="1" as="geometry" />
        </mxCell>
        <mxCell id="EPNJKxrRpqHv5ameMNeh-41" value="Manual Approval" style="sketch=0;points=[[0,0,0],[0.25,0,0],[0.5,0,0],[0.75,0,0],[1,0,0],[0,1,0],[0.25,1,0],[0.5,1,0],[0.75,1,0],[1,1,0],[0,0.25,0],[0,0.5,0],[0,0.75,0],[1,0.25,0],[1,0.5,0],[1,0.75,0]];outlineConnect=0;fontColor=#232F3E;gradientColor=#4D72F3;gradientDirection=north;fillColor=#3334B9;strokeColor=#ffffff;dashed=0;verticalLabelPosition=bottom;verticalAlign=top;align=center;html=1;fontSize=12;fontStyle=0;aspect=fixed;shape=mxgraph.aws4.resourceIcon;resIcon=mxgraph.aws4.codebuild;" parent="1" vertex="1">
          <mxGeometry x="2030" y="1020" width="78" height="78" as="geometry" />
        </mxCell>
        <mxCell id="EPNJKxrRpqHv5ameMNeh-42" value="Deploy to Production" style="sketch=0;points=[[0,0,0],[0.25,0,0],[0.5,0,0],[0.75,0,0],[1,0,0],[0,1,0],[0.25,1,0],[0.5,1,0],[0.75,1,0],[1,1,0],[0,0.25,0],[0,0.5,0],[0,0.75,0],[1,0.25,0],[1,0.5,0],[1,0.75,0]];outlineConnect=0;fontColor=#232F3E;gradientColor=#4D72F3;gradientDirection=north;fillColor=#3334B9;strokeColor=#ffffff;dashed=0;verticalLabelPosition=bottom;verticalAlign=top;align=center;html=1;fontSize=12;fontStyle=0;aspect=fixed;shape=mxgraph.aws4.resourceIcon;resIcon=mxgraph.aws4.codedeploy;" parent="1" vertex="1">
          <mxGeometry x="2200" y="1020" width="78" height="78" as="geometry" />
        </mxCell>
        <mxCell id="EPNJKxrRpqHv5ameMNeh-44" style="edgeStyle=orthogonalEdgeStyle;rounded=0;orthogonalLoop=1;jettySize=auto;html=1;" parent="1" source="EPNJKxrRpqHv5ameMNeh-45" target="EPNJKxrRpqHv5ameMNeh-41" edge="1">
          <mxGeometry relative="1" as="geometry">
            <Array as="points">
              <mxPoint x="1990" y="1060.5" />
              <mxPoint x="1990" y="1060.5" />
            </Array>
          </mxGeometry>
        </mxCell>
        <mxCell id="EPNJKxrRpqHv5ameMNeh-45" value="" style="shape=actor;whiteSpace=wrap;html=1;" parent="1" vertex="1">
          <mxGeometry x="1894" y="1025.5" width="46" height="72.5" as="geometry" />
        </mxCell>
        <mxCell id="EPNJKxrRpqHv5ameMNeh-46" value="Release Manager" style="text;html=1;strokeColor=none;fillColor=none;align=center;verticalAlign=middle;whiteSpace=wrap;rounded=0;" parent="1" vertex="1">
          <mxGeometry x="1867.5" y="1098" width="99" height="30" as="geometry" />
        </mxCell>
        <mxCell id="EPNJKxrRpqHv5ameMNeh-47" value="Development Team" style="shape=image;html=1;verticalAlign=top;verticalLabelPosition=bottom;labelBackgroundColor=#ffffff;imageAspect=0;aspect=fixed;image=https://cdn2.iconfinder.com/data/icons/essential-web-1-1/50/group-customers-team-contacts-family-128.png" parent="1" vertex="1">
          <mxGeometry x="940" y="1010" width="85" height="85" as="geometry" />
        </mxCell>
        <mxCell id="EPNJKxrRpqHv5ameMNeh-6" value="Availability zone #2" style="sketch=0;outlineConnect=0;gradientColor=none;html=1;whiteSpace=wrap;fontSize=12;fontStyle=0;shape=mxgraph.aws4.group;grIcon=mxgraph.aws4.group_availability_zone;strokeColor=#545B64;fillColor=none;verticalAlign=top;align=left;spacingLeft=30;fontColor=#545B64;dashed=1;movable=1;resizable=1;rotatable=1;deletable=1;editable=1;connectable=1;" parent="1" vertex="1">
          <mxGeometry x="316" y="534.5" width="600" height="255" as="geometry" />
        </mxCell>
        <mxCell id="EPNJKxrRpqHv5ameMNeh-7" value="&amp;lt;&amp;lt;&amp;lt;&amp;lt;&amp;lt;&amp;lt;&amp;lt;&amp;lt;" style="sketch=0;outlineConnect=0;gradientColor=none;html=1;whiteSpace=wrap;fontSize=12;fontStyle=0;shape=mxgraph.aws4.group;grIcon=mxgraph.aws4.group_availability_zone;strokeColor=#545B64;fillColor=none;verticalAlign=top;align=left;spacingLeft=30;fontColor=#545B64;dashed=1;" parent="1" vertex="1">
          <mxGeometry x="316" y="262.5" width="604" height="230" as="geometry" />
        </mxCell>
        <mxCell id="EPNJKxrRpqHv5ameMNeh-8" value="Private subnet" style="points=[[0,0],[0.25,0],[0.5,0],[0.75,0],[1,0],[1,0.25],[1,0.5],[1,0.75],[1,1],[0.75,1],[0.5,1],[0.25,1],[0,1],[0,0.75],[0,0.5],[0,0.25]];outlineConnect=0;gradientColor=none;html=1;whiteSpace=wrap;fontSize=12;fontStyle=0;container=1;pointerEvents=0;collapsible=0;recursiveResize=0;shape=mxgraph.aws4.group;grIcon=mxgraph.aws4.group_security_group;grStroke=0;strokeColor=#147EBA;fillColor=#E6F2F8;verticalAlign=top;align=left;spacingLeft=30;fontColor=#147EBA;dashed=0;" parent="1" vertex="1">
          <mxGeometry x="676" y="310" width="214" height="152.5" as="geometry" />
        </mxCell>
        <mxCell id="EPNJKxrRpqHv5ameMNeh-10" value="AWS Fargate" style="sketch=0;outlineConnect=0;fontColor=#232F3E;gradientColor=none;strokeColor=#ffffff;fillColor=#232F3E;dashed=0;verticalLabelPosition=middle;verticalAlign=bottom;align=center;html=1;whiteSpace=wrap;fontSize=10;fontStyle=1;spacing=3;shape=mxgraph.aws4.productIcon;prIcon=mxgraph.aws4.fargate;" parent="EPNJKxrRpqHv5ameMNeh-8" vertex="1">
          <mxGeometry x="14" y="41" width="80" height="100" as="geometry" />
        </mxCell>
        <mxCell id="EPNJKxrRpqHv5ameMNeh-15" value="Public subnet" style="points=[[0,0],[0.25,0],[0.5,0],[0.75,0],[1,0],[1,0.25],[1,0.5],[1,0.75],[1,1],[0.75,1],[0.5,1],[0.25,1],[0,1],[0,0.75],[0,0.5],[0,0.25]];outlineConnect=0;gradientColor=none;html=1;whiteSpace=wrap;fontSize=12;fontStyle=0;container=1;pointerEvents=0;collapsible=0;recursiveResize=0;shape=mxgraph.aws4.group;grIcon=mxgraph.aws4.group_security_group;grStroke=0;strokeColor=#248814;fillColor=#E9F3E6;verticalAlign=top;align=left;spacingLeft=30;fontColor=#248814;dashed=0;" parent="1" vertex="1">
          <mxGeometry x="396" y="302.5" width="240" height="160" as="geometry" />
        </mxCell>
        <mxCell id="EPNJKxrRpqHv5ameMNeh-16" value="NAT gateway" style="sketch=0;outlineConnect=0;fontColor=#232F3E;gradientColor=none;fillColor=#4D27AA;strokeColor=none;dashed=0;verticalLabelPosition=bottom;verticalAlign=top;align=center;html=1;fontSize=12;fontStyle=0;aspect=fixed;pointerEvents=1;shape=mxgraph.aws4.nat_gateway;" parent="EPNJKxrRpqHv5ameMNeh-15" vertex="1">
          <mxGeometry x="80" y="41" width="78" height="78" as="geometry" />
        </mxCell>
        <mxCell id="EPNJKxrRpqHv5ameMNeh-18" value="Private subnet" style="points=[[0,0],[0.25,0],[0.5,0],[0.75,0],[1,0],[1,0.25],[1,0.5],[1,0.75],[1,1],[0.75,1],[0.5,1],[0.25,1],[0,1],[0,0.75],[0,0.5],[0,0.25]];outlineConnect=0;gradientColor=none;html=1;whiteSpace=wrap;fontSize=12;fontStyle=0;container=1;pointerEvents=0;collapsible=0;recursiveResize=0;shape=mxgraph.aws4.group;grIcon=mxgraph.aws4.group_security_group;grStroke=0;strokeColor=#147EBA;fillColor=#E6F2F8;verticalAlign=top;align=left;spacingLeft=30;fontColor=#147EBA;dashed=0;" parent="1" vertex="1">
          <mxGeometry x="676" y="620" width="214" height="153.5" as="geometry" />
        </mxCell>
        <mxCell id="EPNJKxrRpqHv5ameMNeh-20" value="AWS Fargate" style="sketch=0;outlineConnect=0;fontColor=#232F3E;gradientColor=none;strokeColor=#ffffff;fillColor=#232F3E;dashed=0;verticalLabelPosition=middle;verticalAlign=bottom;align=center;html=1;whiteSpace=wrap;fontSize=10;fontStyle=1;spacing=3;shape=mxgraph.aws4.productIcon;prIcon=mxgraph.aws4.fargate;" parent="EPNJKxrRpqHv5ameMNeh-18" vertex="1">
          <mxGeometry x="14" y="36.5" width="80" height="100" as="geometry" />
        </mxCell>
        <mxCell id="EPNJKxrRpqHv5ameMNeh-25" value="Public subnet" style="points=[[0,0],[0.25,0],[0.5,0],[0.75,0],[1,0],[1,0.25],[1,0.5],[1,0.75],[1,1],[0.75,1],[0.5,1],[0.25,1],[0,1],[0,0.75],[0,0.5],[0,0.25]];outlineConnect=0;gradientColor=none;html=1;whiteSpace=wrap;fontSize=12;fontStyle=0;container=1;pointerEvents=0;collapsible=0;recursiveResize=0;shape=mxgraph.aws4.group;grIcon=mxgraph.aws4.group_security_group;grStroke=0;strokeColor=#248814;fillColor=#E9F3E6;verticalAlign=top;align=left;spacingLeft=30;fontColor=#248814;dashed=0;" parent="1" vertex="1">
          <mxGeometry x="395" y="562.5" width="240" height="211" as="geometry" />
        </mxCell>
        <mxCell id="EPNJKxrRpqHv5ameMNeh-28" style="edgeStyle=orthogonalEdgeStyle;rounded=0;orthogonalLoop=1;jettySize=auto;html=1;" parent="1" source="EPNJKxrRpqHv5ameMNeh-31" target="EPNJKxrRpqHv5ameMNeh-20" edge="1">
          <mxGeometry relative="1" as="geometry">
            <mxPoint x="697" y="710.5" as="targetPoint" />
            <Array as="points">
              <mxPoint x="696" y="710.5" />
              <mxPoint x="696" y="710.5" />
            </Array>
          </mxGeometry>
        </mxCell>
        <mxCell id="EPNJKxrRpqHv5ameMNeh-29" style="edgeStyle=orthogonalEdgeStyle;rounded=0;orthogonalLoop=1;jettySize=auto;html=1;" parent="1" source="EPNJKxrRpqHv5ameMNeh-31" target="EPNJKxrRpqHv5ameMNeh-10" edge="1">
          <mxGeometry relative="1" as="geometry">
            <Array as="points">
              <mxPoint x="656" y="710.5" />
              <mxPoint x="656" y="393.5" />
            </Array>
          </mxGeometry>
        </mxCell>
        <mxCell id="EPNJKxrRpqHv5ameMNeh-30" value="NAT Gateway" style="sketch=0;outlineConnect=0;fontColor=#232F3E;gradientColor=none;fillColor=#4D27AA;strokeColor=none;dashed=0;verticalLabelPosition=bottom;verticalAlign=top;align=center;html=1;fontSize=12;fontStyle=0;aspect=fixed;pointerEvents=1;shape=mxgraph.aws4.nat_gateway;" parent="1" vertex="1">
          <mxGeometry x="477" y="570" width="78" height="78" as="geometry" />
        </mxCell>
        <mxCell id="EPNJKxrRpqHv5ameMNeh-31" value="Application Load Banlacer" style="sketch=0;outlineConnect=0;fontColor=#232F3E;gradientColor=none;fillColor=#4D27AA;strokeColor=none;dashed=0;verticalLabelPosition=bottom;verticalAlign=top;align=center;html=1;fontSize=12;fontStyle=0;aspect=fixed;pointerEvents=1;shape=mxgraph.aws4.application_load_balancer;" parent="1" vertex="1">
          <mxGeometry x="476" y="676.5" width="78" height="78" as="geometry" />
        </mxCell>
        <mxCell id="EPNJKxrRpqHv5ameMNeh-33" value="ECS" style="text;html=1;strokeColor=none;fillColor=none;align=center;verticalAlign=middle;whiteSpace=wrap;rounded=0;" parent="1" vertex="1">
          <mxGeometry x="636" y="280" width="60" height="30" as="geometry" />
        </mxCell>
        <mxCell id="EPNJKxrRpqHv5ameMNeh-102" value="VPC Production" style="points=[[0,0],[0.25,0],[0.5,0],[0.75,0],[1,0],[1,0.25],[1,0.5],[1,0.75],[1,1],[0.75,1],[0.5,1],[0.25,1],[0,1],[0,0.75],[0,0.5],[0,0.25]];outlineConnect=0;gradientColor=none;html=1;whiteSpace=wrap;fontSize=12;fontStyle=0;container=0;pointerEvents=0;collapsible=0;recursiveResize=0;shape=mxgraph.aws4.group;grIcon=mxgraph.aws4.group_vpc;strokeColor=#248814;fillColor=none;verticalAlign=top;align=left;spacingLeft=30;fontColor=#AAB7B8;dashed=0;movable=1;resizable=1;rotatable=1;deletable=1;editable=1;connectable=1;locked=0;" parent="1" vertex="1">
          <mxGeometry x="1830" y="202.5" width="1160" height="590" as="geometry" />
        </mxCell>
        <mxCell id="EPNJKxrRpqHv5ameMNeh-103" style="edgeStyle=orthogonalEdgeStyle;rounded=0;orthogonalLoop=1;jettySize=auto;html=1;" parent="1" source="EPNJKxrRpqHv5ameMNeh-104" target="EPNJKxrRpqHv5ameMNeh-117" edge="1">
          <mxGeometry relative="1" as="geometry">
            <Array as="points">
              <mxPoint x="1990" y="690.5" />
              <mxPoint x="1990" y="690.5" />
            </Array>
          </mxGeometry>
        </mxCell>
        <mxCell id="EPNJKxrRpqHv5ameMNeh-104" value="" style="outlineConnect=0;dashed=0;verticalLabelPosition=bottom;verticalAlign=top;align=center;html=1;shape=mxgraph.aws3.internet_gateway;fillColor=#F58536;gradientColor=none;" parent="1" vertex="1">
          <mxGeometry x="1800" y="654.5" width="69" height="72" as="geometry" />
        </mxCell>
        <mxCell id="EPNJKxrRpqHv5ameMNeh-105" value="Availability zone #2" style="sketch=0;outlineConnect=0;gradientColor=none;html=1;whiteSpace=wrap;fontSize=12;fontStyle=0;shape=mxgraph.aws4.group;grIcon=mxgraph.aws4.group_availability_zone;strokeColor=#545B64;fillColor=none;verticalAlign=top;align=left;spacingLeft=30;fontColor=#545B64;dashed=1;movable=1;resizable=1;rotatable=1;deletable=1;editable=1;connectable=1;" parent="1" vertex="1">
          <mxGeometry x="1870" y="514.5" width="600" height="255" as="geometry" />
        </mxCell>
        <mxCell id="EPNJKxrRpqHv5ameMNeh-106" value="Availability zone #1" style="sketch=0;outlineConnect=0;gradientColor=none;html=1;whiteSpace=wrap;fontSize=12;fontStyle=0;shape=mxgraph.aws4.group;grIcon=mxgraph.aws4.group_availability_zone;strokeColor=#545B64;fillColor=none;verticalAlign=top;align=left;spacingLeft=30;fontColor=#545B64;dashed=1;" parent="1" vertex="1">
          <mxGeometry x="1870" y="242.5" width="604" height="230" as="geometry" />
        </mxCell>
        <mxCell id="EPNJKxrRpqHv5ameMNeh-107" value="Private subnet" style="points=[[0,0],[0.25,0],[0.5,0],[0.75,0],[1,0],[1,0.25],[1,0.5],[1,0.75],[1,1],[0.75,1],[0.5,1],[0.25,1],[0,1],[0,0.75],[0,0.5],[0,0.25]];outlineConnect=0;gradientColor=none;html=1;whiteSpace=wrap;fontSize=12;fontStyle=0;container=1;pointerEvents=0;collapsible=0;recursiveResize=0;shape=mxgraph.aws4.group;grIcon=mxgraph.aws4.group_security_group;grStroke=0;strokeColor=#147EBA;fillColor=#E6F2F8;verticalAlign=top;align=left;spacingLeft=30;fontColor=#147EBA;dashed=0;" parent="1" vertex="1">
          <mxGeometry x="2230" y="290" width="214" height="152.5" as="geometry" />
        </mxCell>
        <mxCell id="uCjAx5EDnqpBXc4Zrizi-6" value="" style="edgeStyle=orthogonalEdgeStyle;rounded=0;orthogonalLoop=1;jettySize=auto;html=1;" parent="EPNJKxrRpqHv5ameMNeh-107" source="EPNJKxrRpqHv5ameMNeh-108" target="uCjAx5EDnqpBXc4Zrizi-4" edge="1">
          <mxGeometry relative="1" as="geometry">
            <Array as="points">
              <mxPoint x="110" y="76" />
              <mxPoint x="110" y="76" />
            </Array>
          </mxGeometry>
        </mxCell>
        <mxCell id="EPNJKxrRpqHv5ameMNeh-108" value="AWS Fargate" style="sketch=0;outlineConnect=0;fontColor=#232F3E;gradientColor=none;strokeColor=#ffffff;fillColor=#232F3E;dashed=0;verticalLabelPosition=middle;verticalAlign=bottom;align=center;html=1;whiteSpace=wrap;fontSize=10;fontStyle=1;spacing=3;shape=mxgraph.aws4.productIcon;prIcon=mxgraph.aws4.fargate;" parent="EPNJKxrRpqHv5ameMNeh-107" vertex="1">
          <mxGeometry x="20" y="40.5" width="80" height="100" as="geometry" />
        </mxCell>
        <mxCell id="uCjAx5EDnqpBXc4Zrizi-4" value="Drupal - EC2" style="outlineConnect=0;dashed=0;verticalLabelPosition=bottom;verticalAlign=top;align=center;html=1;shape=mxgraph.aws3.ec2;fillColor=#F58534;gradientColor=none;" parent="EPNJKxrRpqHv5ameMNeh-107" vertex="1">
          <mxGeometry x="143" y="41" width="61" height="70.5" as="geometry" />
        </mxCell>
        <mxCell id="EPNJKxrRpqHv5ameMNeh-109" value="Public subnet" style="points=[[0,0],[0.25,0],[0.5,0],[0.75,0],[1,0],[1,0.25],[1,0.5],[1,0.75],[1,1],[0.75,1],[0.5,1],[0.25,1],[0,1],[0,0.75],[0,0.5],[0,0.25]];outlineConnect=0;gradientColor=none;html=1;whiteSpace=wrap;fontSize=12;fontStyle=0;container=1;pointerEvents=0;collapsible=0;recursiveResize=0;shape=mxgraph.aws4.group;grIcon=mxgraph.aws4.group_security_group;grStroke=0;strokeColor=#248814;fillColor=#E9F3E6;verticalAlign=top;align=left;spacingLeft=30;fontColor=#248814;dashed=0;" parent="1" vertex="1">
          <mxGeometry x="1950" y="282.5" width="240" height="160" as="geometry" />
        </mxCell>
        <mxCell id="EPNJKxrRpqHv5ameMNeh-110" value="NAT gateway" style="sketch=0;outlineConnect=0;fontColor=#232F3E;gradientColor=none;fillColor=#4D27AA;strokeColor=none;dashed=0;verticalLabelPosition=bottom;verticalAlign=top;align=center;html=1;fontSize=12;fontStyle=0;aspect=fixed;pointerEvents=1;shape=mxgraph.aws4.nat_gateway;" parent="EPNJKxrRpqHv5ameMNeh-109" vertex="1">
          <mxGeometry x="80" y="41" width="78" height="78" as="geometry" />
        </mxCell>
        <mxCell id="EPNJKxrRpqHv5ameMNeh-111" value="Private subnet" style="points=[[0,0],[0.25,0],[0.5,0],[0.75,0],[1,0],[1,0.25],[1,0.5],[1,0.75],[1,1],[0.75,1],[0.5,1],[0.25,1],[0,1],[0,0.75],[0,0.5],[0,0.25]];outlineConnect=0;gradientColor=none;html=1;whiteSpace=wrap;fontSize=12;fontStyle=0;container=1;pointerEvents=0;collapsible=0;recursiveResize=0;shape=mxgraph.aws4.group;grIcon=mxgraph.aws4.group_security_group;grStroke=0;strokeColor=#147EBA;fillColor=#E6F2F8;verticalAlign=top;align=left;spacingLeft=30;fontColor=#147EBA;dashed=0;" parent="1" vertex="1">
          <mxGeometry x="2230" y="600" width="214" height="153.5" as="geometry" />
        </mxCell>
        <mxCell id="EPNJKxrRpqHv5ameMNeh-112" value="AWS Fargate" style="sketch=0;outlineConnect=0;fontColor=#232F3E;gradientColor=none;strokeColor=#ffffff;fillColor=#232F3E;dashed=0;verticalLabelPosition=middle;verticalAlign=bottom;align=center;html=1;whiteSpace=wrap;fontSize=10;fontStyle=1;spacing=3;shape=mxgraph.aws4.productIcon;prIcon=mxgraph.aws4.fargate;" parent="EPNJKxrRpqHv5ameMNeh-111" vertex="1">
          <mxGeometry x="20" y="34.5" width="80" height="100" as="geometry" />
        </mxCell>
        <mxCell id="EPNJKxrRpqHv5ameMNeh-113" value="Public subnet" style="points=[[0,0],[0.25,0],[0.5,0],[0.75,0],[1,0],[1,0.25],[1,0.5],[1,0.75],[1,1],[0.75,1],[0.5,1],[0.25,1],[0,1],[0,0.75],[0,0.5],[0,0.25]];outlineConnect=0;gradientColor=none;html=1;whiteSpace=wrap;fontSize=12;fontStyle=0;container=1;pointerEvents=0;collapsible=0;recursiveResize=0;shape=mxgraph.aws4.group;grIcon=mxgraph.aws4.group_security_group;grStroke=0;strokeColor=#248814;fillColor=#E9F3E6;verticalAlign=top;align=left;spacingLeft=30;fontColor=#248814;dashed=0;" parent="1" vertex="1">
          <mxGeometry x="1949" y="542.5" width="240" height="211" as="geometry" />
        </mxCell>
        <mxCell id="EPNJKxrRpqHv5ameMNeh-114" style="edgeStyle=orthogonalEdgeStyle;rounded=0;orthogonalLoop=1;jettySize=auto;html=1;" parent="1" source="EPNJKxrRpqHv5ameMNeh-117" target="EPNJKxrRpqHv5ameMNeh-112" edge="1">
          <mxGeometry relative="1" as="geometry">
            <mxPoint x="2251" y="690.5" as="targetPoint" />
            <Array as="points">
              <mxPoint x="2250" y="690.5" />
              <mxPoint x="2250" y="690.5" />
            </Array>
          </mxGeometry>
        </mxCell>
        <mxCell id="EPNJKxrRpqHv5ameMNeh-115" style="edgeStyle=orthogonalEdgeStyle;rounded=0;orthogonalLoop=1;jettySize=auto;html=1;" parent="1" source="EPNJKxrRpqHv5ameMNeh-117" target="EPNJKxrRpqHv5ameMNeh-108" edge="1">
          <mxGeometry relative="1" as="geometry">
            <Array as="points">
              <mxPoint x="2210" y="690.5" />
              <mxPoint x="2210" y="373.5" />
            </Array>
          </mxGeometry>
        </mxCell>
        <mxCell id="EPNJKxrRpqHv5ameMNeh-116" value="NAT Gateway" style="sketch=0;outlineConnect=0;fontColor=#232F3E;gradientColor=none;fillColor=#4D27AA;strokeColor=none;dashed=0;verticalLabelPosition=bottom;verticalAlign=top;align=center;html=1;fontSize=12;fontStyle=0;aspect=fixed;pointerEvents=1;shape=mxgraph.aws4.nat_gateway;" parent="1" vertex="1">
          <mxGeometry x="2031" y="550" width="78" height="78" as="geometry" />
        </mxCell>
        <mxCell id="EPNJKxrRpqHv5ameMNeh-117" value="Application Load Banlacer" style="sketch=0;outlineConnect=0;fontColor=#232F3E;gradientColor=none;fillColor=#4D27AA;strokeColor=none;dashed=0;verticalLabelPosition=bottom;verticalAlign=top;align=center;html=1;fontSize=12;fontStyle=0;aspect=fixed;pointerEvents=1;shape=mxgraph.aws4.application_load_balancer;" parent="1" vertex="1">
          <mxGeometry x="2030" y="656.5" width="78" height="78" as="geometry" />
        </mxCell>
        <mxCell id="EPNJKxrRpqHv5ameMNeh-119" value="ECS" style="text;html=1;strokeColor=none;fillColor=none;align=center;verticalAlign=middle;whiteSpace=wrap;rounded=0;" parent="1" vertex="1">
          <mxGeometry x="2190" y="260" width="60" height="30" as="geometry" />
        </mxCell>
        <mxCell id="EPNJKxrRpqHv5ameMNeh-124" style="edgeStyle=orthogonalEdgeStyle;rounded=0;orthogonalLoop=1;jettySize=auto;html=1;" parent="1" source="EPNJKxrRpqHv5ameMNeh-122" target="EPNJKxrRpqHv5ameMNeh-104" edge="1">
          <mxGeometry relative="1" as="geometry" />
        </mxCell>
        <mxCell id="EPNJKxrRpqHv5ameMNeh-122" value="QA and Testing" style="sketch=0;pointerEvents=1;shadow=0;dashed=0;html=1;strokeColor=none;labelPosition=center;verticalLabelPosition=bottom;verticalAlign=top;outlineConnect=0;align=center;shape=mxgraph.office.users.users;fillColor=#2072B8;" parent="1" vertex="1">
          <mxGeometry x="1680" y="657" width="64" height="67" as="geometry" />
        </mxCell>
        <mxCell id="uCjAx5EDnqpBXc4Zrizi-1" value="Drupal - EC2" style="outlineConnect=0;dashed=0;verticalLabelPosition=bottom;verticalAlign=top;align=center;html=1;shape=mxgraph.aws3.ec2;fillColor=#F58534;gradientColor=none;" parent="1" vertex="1">
          <mxGeometry x="810" y="360" width="61" height="70.5" as="geometry" />
        </mxCell>
        <mxCell id="uCjAx5EDnqpBXc4Zrizi-2" style="edgeStyle=orthogonalEdgeStyle;rounded=0;orthogonalLoop=1;jettySize=auto;html=1;" parent="1" source="EPNJKxrRpqHv5ameMNeh-20" target="uCjAx5EDnqpBXc4Zrizi-1" edge="1">
          <mxGeometry relative="1" as="geometry" />
        </mxCell>
        <mxCell id="uCjAx5EDnqpBXc4Zrizi-3" style="edgeStyle=orthogonalEdgeStyle;rounded=0;orthogonalLoop=1;jettySize=auto;html=1;entryX=0;entryY=0.5;entryDx=0;entryDy=0;entryPerimeter=0;" parent="1" source="EPNJKxrRpqHv5ameMNeh-10" target="uCjAx5EDnqpBXc4Zrizi-1" edge="1">
          <mxGeometry relative="1" as="geometry">
            <Array as="points">
              <mxPoint x="790" y="395" />
            </Array>
          </mxGeometry>
        </mxCell>
        <mxCell id="uCjAx5EDnqpBXc4Zrizi-5" style="edgeStyle=orthogonalEdgeStyle;rounded=0;orthogonalLoop=1;jettySize=auto;html=1;" parent="1" source="EPNJKxrRpqHv5ameMNeh-112" target="uCjAx5EDnqpBXc4Zrizi-4" edge="1">
          <mxGeometry relative="1" as="geometry" />
        </mxCell>
        <UserObject label="Event-tracking-services" link="data:page/id,NbKGueVPAwaXfEYnwI-3" linkTarget="_blank" id="khykNjXWzw1qui_eXTI9-2">
          <mxCell style="rounded=1;whiteSpace=wrap;html=1;fillColor=#91c3f8;" vertex="1" parent="1">
            <mxGeometry x="980" y="272.5" width="210" height="112" as="geometry" />
          </mxCell>
        </UserObject>
        <mxCell id="khykNjXWzw1qui_eXTI9-3" style="edgeStyle=orthogonalEdgeStyle;rounded=0;orthogonalLoop=1;jettySize=auto;html=1;" edge="1" parent="1" source="EPNJKxrRpqHv5ameMNeh-10" target="khykNjXWzw1qui_eXTI9-2">
          <mxGeometry relative="1" as="geometry">
            <Array as="points">
              <mxPoint x="730" y="290" />
            </Array>
          </mxGeometry>
        </mxCell>
        <UserObject label="Event-tracking-services" link="data:page/id,NbKGueVPAwaXfEYnwI-3" linkTarget="_blank" id="3ssIhchn67TMz53YxvUf-1">
          <mxCell style="rounded=1;whiteSpace=wrap;html=1;fillColor=#91c3f8;" vertex="1" parent="1">
            <mxGeometry x="2560" y="272.5" width="210" height="112" as="geometry" />
          </mxCell>
        </UserObject>
        <mxCell id="3ssIhchn67TMz53YxvUf-4" style="edgeStyle=orthogonalEdgeStyle;rounded=0;orthogonalLoop=1;jettySize=auto;html=1;entryX=0;entryY=0.25;entryDx=0;entryDy=0;" edge="1" parent="1" source="EPNJKxrRpqHv5ameMNeh-108" target="3ssIhchn67TMz53YxvUf-1">
          <mxGeometry relative="1" as="geometry">
            <Array as="points">
              <mxPoint x="2290" y="301" />
            </Array>
          </mxGeometry>
        </mxCell>
        <mxCell id="3ssIhchn67TMz53YxvUf-5" style="edgeStyle=orthogonalEdgeStyle;rounded=0;orthogonalLoop=1;jettySize=auto;html=1;" edge="1" parent="1" source="EPNJKxrRpqHv5ameMNeh-20" target="khykNjXWzw1qui_eXTI9-2">
          <mxGeometry relative="1" as="geometry" />
        </mxCell>
        <mxCell id="3ssIhchn67TMz53YxvUf-6" style="edgeStyle=orthogonalEdgeStyle;rounded=0;orthogonalLoop=1;jettySize=auto;html=1;entryX=0.5;entryY=1;entryDx=0;entryDy=0;" edge="1" parent="1" source="EPNJKxrRpqHv5ameMNeh-112" target="3ssIhchn67TMz53YxvUf-1">
          <mxGeometry relative="1" as="geometry" />
        </mxCell>
      </root>
    </mxGraphModel>
  </diagram>
  <diagram id="NbKGueVPAwaXfEYnwI-3" name="Página-2">
    <mxGraphModel dx="1304" dy="851" grid="1" gridSize="10" guides="1" tooltips="1" connect="1" arrows="1" fold="1" page="1" pageScale="1" pageWidth="1654" pageHeight="1169" math="0" shadow="0">
      <root>
        <mxCell id="0" />
        <mxCell id="1" parent="0" />
        <mxCell id="_dEcuWrICsj82m9I1x2D-1" value="Amazon DynamoDB" style="whiteSpace=wrap;html=1;fillColor=none;fontSize=14;fontColor=#000000;dashed=0;fontStyle=0;align=center;verticalAlign=top;strokeColor=#D86613;gradientColor=none;spacingLeft=0;labelPosition=center;verticalLabelPosition=bottom;container=1;pointerEvents=0;collapsible=0;recursiveResize=0;" vertex="1" parent="1">
          <mxGeometry x="712.5" y="339" width="232" height="160" as="geometry" />
        </mxCell>
        <mxCell id="_dEcuWrICsj82m9I1x2D-2" value="1" style="rounded=1;whiteSpace=wrap;html=1;fillColor=#007CBD;strokeColor=none;fontColor=#FFFFFF;fontStyle=1;fontSize=22;" vertex="1" parent="1">
          <mxGeometry x="61.5" y="289" width="40" height="38" as="geometry" />
        </mxCell>
        <mxCell id="_dEcuWrICsj82m9I1x2D-3" value="2" style="rounded=1;whiteSpace=wrap;html=1;fillColor=#007CBD;strokeColor=none;fontColor=#FFFFFF;fontStyle=1;fontSize=22;" vertex="1" parent="1">
          <mxGeometry x="321.5" y="242" width="40" height="38" as="geometry" />
        </mxCell>
        <mxCell id="_dEcuWrICsj82m9I1x2D-4" value="3" style="rounded=1;whiteSpace=wrap;html=1;fillColor=#007CBD;strokeColor=none;fontColor=#FFFFFF;fontStyle=1;fontSize=22;" vertex="1" parent="1">
          <mxGeometry x="540.5" y="593.5" width="40" height="38" as="geometry" />
        </mxCell>
        <mxCell id="_dEcuWrICsj82m9I1x2D-5" value="Event - Tracking Service" style="text;html=1;resizable=0;points=[];autosize=1;align=left;verticalAlign=top;spacingTop=-4;fontSize=30;fontStyle=1" vertex="1" parent="1">
          <mxGeometry x="10" y="83.5" width="350" height="40" as="geometry" />
        </mxCell>
        <mxCell id="_dEcuWrICsj82m9I1x2D-6" value="Playground - Dentsu" style="text;html=1;resizable=0;points=[];autosize=1;align=left;verticalAlign=top;spacingTop=-4;fontSize=16;" vertex="1" parent="1">
          <mxGeometry x="10" y="133.5" width="170" height="30" as="geometry" />
        </mxCell>
        <mxCell id="_dEcuWrICsj82m9I1x2D-7" value="Label" style="text;html=1;resizable=0;points=[];autosize=1;align=left;verticalAlign=top;spacingTop=-4;fontSize=16;fontStyle=1" vertex="1" parent="1">
          <mxGeometry x="38" y="183.5" width="50" height="20" as="geometry" />
        </mxCell>
        <mxCell id="_dEcuWrICsj82m9I1x2D-8" value="" style="line;strokeWidth=2;html=1;fontSize=14;" vertex="1" parent="1">
          <mxGeometry x="6" y="158.5" width="1060" height="10" as="geometry" />
        </mxCell>
        <mxCell id="_dEcuWrICsj82m9I1x2D-9" value="&lt;span&gt;Microservicios&lt;/span&gt;" style="text;html=1;resizable=0;points=[];autosize=1;align=left;verticalAlign=top;spacingTop=-4;fontSize=14;fontStyle=1" vertex="1" parent="1">
          <mxGeometry x="280.5" y="294" width="110" height="20" as="geometry" />
        </mxCell>
        <mxCell id="_dEcuWrICsj82m9I1x2D-10" value="" style="edgeStyle=orthogonalEdgeStyle;html=1;endArrow=open;elbow=vertical;startArrow=none;endFill=0;strokeColor=#545B64;rounded=0;fontSize=14;" edge="1" parent="1">
          <mxGeometry width="100" relative="1" as="geometry">
            <mxPoint x="192.5" y="472" as="sourcePoint" />
            <mxPoint x="242.5" y="472" as="targetPoint" />
          </mxGeometry>
        </mxCell>
        <mxCell id="_dEcuWrICsj82m9I1x2D-11" value="" style="shape=curlyBracket;whiteSpace=wrap;html=1;rounded=1;fontSize=14;" vertex="1" parent="1">
          <mxGeometry x="253.5" y="326" width="20" height="290" as="geometry" />
        </mxCell>
        <mxCell id="_dEcuWrICsj82m9I1x2D-12" value="&lt;span&gt;CRON&lt;/span&gt;" style="edgeStyle=orthogonalEdgeStyle;html=1;endArrow=open;elbow=vertical;startArrow=none;endFill=0;strokeColor=#545B64;rounded=0;fontSize=14;strokeWidth=2;" edge="1" parent="1">
          <mxGeometry x="-0.037" y="20" width="100" relative="1" as="geometry">
            <mxPoint x="423.5" y="424" as="sourcePoint" />
            <mxPoint x="693.5" y="424" as="targetPoint" />
            <mxPoint as="offset" />
          </mxGeometry>
        </mxCell>
        <mxCell id="_dEcuWrICsj82m9I1x2D-13" value="" style="rounded=0;whiteSpace=wrap;html=1;fillColor=#EAEDED;fontSize=22;fontColor=#FFFFFF;strokeColor=none;labelBackgroundColor=none;" vertex="1" parent="1">
          <mxGeometry x="1104.5" y="70" width="539" height="709" as="geometry" />
        </mxCell>
        <mxCell id="_dEcuWrICsj82m9I1x2D-14" value="1" style="rounded=1;whiteSpace=wrap;html=1;fillColor=#007CBD;strokeColor=none;fontColor=#FFFFFF;fontStyle=1;fontSize=22;labelBackgroundColor=none;" vertex="1" parent="1">
          <mxGeometry x="1122.5" y="82" width="40" height="38" as="geometry" />
        </mxCell>
        <mxCell id="_dEcuWrICsj82m9I1x2D-15" value="2" style="rounded=1;whiteSpace=wrap;html=1;fillColor=#007CBD;strokeColor=none;fontColor=#FFFFFF;fontStyle=1;fontSize=22;labelBackgroundColor=none;" vertex="1" parent="1">
          <mxGeometry x="1121" y="204" width="40" height="38" as="geometry" />
        </mxCell>
        <mxCell id="_dEcuWrICsj82m9I1x2D-16" value="3" style="rounded=1;whiteSpace=wrap;html=1;fillColor=#007CBD;strokeColor=none;fontColor=#FFFFFF;fontStyle=1;fontSize=22;labelBackgroundColor=none;" vertex="1" parent="1">
          <mxGeometry x="1121" y="324" width="40" height="38" as="geometry" />
        </mxCell>
        <mxCell id="_dEcuWrICsj82m9I1x2D-17" value="4" style="rounded=1;whiteSpace=wrap;html=1;fillColor=#007CBD;strokeColor=none;fontColor=#FFFFFF;fontStyle=1;fontSize=22;labelBackgroundColor=none;" vertex="1" parent="1">
          <mxGeometry x="1121" y="438" width="40" height="38" as="geometry" />
        </mxCell>
        <mxCell id="_dEcuWrICsj82m9I1x2D-18" value="5" style="rounded=1;whiteSpace=wrap;html=1;fillColor=#007CBD;strokeColor=none;fontColor=#FFFFFF;fontStyle=1;fontSize=22;labelBackgroundColor=none;" vertex="1" parent="1">
          <mxGeometry x="1122.5" y="555" width="40" height="38" as="geometry" />
        </mxCell>
        <mxCell id="_dEcuWrICsj82m9I1x2D-19" value="6" style="rounded=1;whiteSpace=wrap;html=1;fillColor=#007CBD;strokeColor=none;fontColor=#FFFFFF;fontStyle=1;fontSize=22;labelBackgroundColor=none;" vertex="1" parent="1">
          <mxGeometry x="1123.5" y="670" width="40" height="38" as="geometry" />
        </mxCell>
        <mxCell id="_dEcuWrICsj82m9I1x2D-20" value="&lt;p style=&quot;margin: 0cm; font-size: 12pt; font-family: Aptos, sans-serif;&quot; class=&quot;MsoNormal&quot;&gt;&lt;/p&gt;&lt;span style=&quot;font-family: Aptos, sans-serif; background-color: initial;&quot;&gt;&lt;font style=&quot;font-size: 14px;&quot;&gt;API Gateway: Actúa como la puerta de entrada para todas las solicitudes entrantes. Aquí se configuran diferentes endpoints que reciben datos de los usuarios o de otros servicios. API Gateway puede manejar autenticación, limitación de tasa, y otras políticas de acceso antes de reenviar las solicitudes a las funciones Lambda correspondientes.&lt;/font&gt;&lt;/span&gt;&amp;nbsp;" style="text;html=1;align=left;verticalAlign=top;spacingTop=-4;fontSize=14;labelBackgroundColor=none;whiteSpace=wrap;" vertex="1" parent="1">
          <mxGeometry x="1174" y="81.5" width="449" height="118" as="geometry" />
        </mxCell>
        <mxCell id="_dEcuWrICsj82m9I1x2D-21" value="&lt;p style=&quot;margin: 0cm; font-family: Aptos, sans-serif;&quot; class=&quot;MsoNormal&quot;&gt;&lt;font style=&quot;font-size: 14px;&quot;&gt;AWS Lambda: Cada función Lambda está diseñada para procesar tipos específicos de eventos. Por ejemplo, podrías tener una función Lambda para procesar eventos de login, otra para transacciones, etc. Estas funciones recibirán los datos desde API Gateway, procesarán la información necesaria, y luego realizarán operaciones de escritura en MongoDB.&lt;/font&gt;&lt;span style=&quot;font-size: 12pt;&quot;&gt;&lt;/span&gt;&lt;/p&gt;" style="text;html=1;align=left;verticalAlign=top;spacingTop=-4;fontSize=14;labelBackgroundColor=none;whiteSpace=wrap;" vertex="1" parent="1">
          <mxGeometry x="1173" y="202.5" width="450" height="115" as="geometry" />
        </mxCell>
        <mxCell id="_dEcuWrICsj82m9I1x2D-22" value="&lt;p style=&quot;margin: 0cm; font-family: Aptos, sans-serif;&quot; class=&quot;MsoNormal&quot;&gt;&lt;font style=&quot;font-size: 14px;&quot;&gt;Autenticación a través de IAM: Las funciones Lambda deben tener permisos IAM adecuados para interactuar con otros servicios de AWS, incluido el acceso a DocumentDB. Esto se configura a través de roles de IAM asociados a cada función Lambda, permitiendo autenticación segura y autorización para operar sobre la base de datos.&lt;/font&gt;&lt;span style=&quot;font-size: 12pt;&quot;&gt;&lt;/span&gt;&lt;/p&gt;" style="text;html=1;align=left;verticalAlign=top;spacingTop=-4;fontSize=14;labelBackgroundColor=none;whiteSpace=wrap;" vertex="1" parent="1">
          <mxGeometry x="1173" y="322.5" width="450" height="117" as="geometry" />
        </mxCell>
        <mxCell id="_dEcuWrICsj82m9I1x2D-23" value="&lt;p style=&quot;margin: 0cm; font-family: Aptos, sans-serif;&quot; class=&quot;MsoNormal&quot;&gt;&lt;font style=&quot;font-size: 14px;&quot;&gt;MongoDB (DocumentDB): Aquí se almacenan los datos procesados por las funciones Lambda. Cada tipo de evento puede ser almacenado en colecciones separadas dentro de DocumentDB. Por ejemplo, eventos de login en una colección, transacciones en otra, etc.&lt;/font&gt;&lt;span style=&quot;font-size: 12pt;&quot;&gt;&lt;/span&gt;&lt;/p&gt;" style="text;html=1;align=left;verticalAlign=top;spacingTop=-4;fontSize=14;labelBackgroundColor=none;whiteSpace=wrap;" vertex="1" parent="1">
          <mxGeometry x="1173" y="438.5" width="450" height="121" as="geometry" />
        </mxCell>
        <mxCell id="_dEcuWrICsj82m9I1x2D-24" value="&lt;p style=&quot;margin: 0cm; font-family: Aptos, sans-serif;&quot; class=&quot;MsoNormal&quot;&gt;&lt;font style=&quot;font-size: 14px;&quot;&gt;Conexión a DocumentDB: AWS QuickSight puede conectarse directamente a Amazon DocumentDB para acceder a los datos almacenados. Esta conexión se configura dentro de QuickSight, donde se establece la fuente de datos apuntando a la instancia de DocumentDB.&lt;/font&gt;&lt;span style=&quot;font-size: 12pt;&quot;&gt;&lt;/span&gt;&lt;/p&gt;" style="text;html=1;align=left;verticalAlign=top;spacingTop=-4;fontSize=14;labelBackgroundColor=none;whiteSpace=wrap;" vertex="1" parent="1">
          <mxGeometry x="1174" y="555.5" width="449" height="114" as="geometry" />
        </mxCell>
        <mxCell id="_dEcuWrICsj82m9I1x2D-25" value="&lt;p style=&quot;margin: 0cm; font-family: Aptos, sans-serif;&quot; class=&quot;MsoNormal&quot;&gt;&lt;font style=&quot;font-size: 14px;&quot;&gt;Creación de Análisis y Dashboards: Una vez establecida la conexión, puede usarce QuickSight para crear visualizaciones, gráficos, y dashboards que ayuden a interpretar los datos. QuickSight ofrece una variedad de herramientas para analizar los datos, incluyendo la capacidad de realizar cálculos ad-hoc, filtrar datos y mucho más.&lt;/font&gt;&lt;span style=&quot;font-size: 12pt;&quot;&gt;&lt;/span&gt;&lt;/p&gt;" style="text;html=1;align=left;verticalAlign=top;spacingTop=-4;fontSize=14;labelBackgroundColor=none;whiteSpace=wrap;" vertex="1" parent="1">
          <mxGeometry x="1174" y="671.5" width="450" height="118" as="geometry" />
        </mxCell>
        <mxCell id="_dEcuWrICsj82m9I1x2D-26" value="" style="sketch=0;points=[[0,0,0],[0.25,0,0],[0.5,0,0],[0.75,0,0],[1,0,0],[0,1,0],[0.25,1,0],[0.5,1,0],[0.75,1,0],[1,1,0],[0,0.25,0],[0,0.5,0],[0,0.75,0],[1,0.25,0],[1,0.5,0],[1,0.75,0]];outlineConnect=0;fontColor=#232F3E;fillColor=#E7157B;strokeColor=#ffffff;dashed=0;verticalLabelPosition=bottom;verticalAlign=top;align=center;html=1;fontSize=12;fontStyle=0;aspect=fixed;shape=mxgraph.aws4.resourceIcon;resIcon=mxgraph.aws4.api_gateway;" vertex="1" parent="1">
          <mxGeometry x="38" y="419" width="110" height="110" as="geometry" />
        </mxCell>
        <mxCell id="_dEcuWrICsj82m9I1x2D-27" value="" style="outlineConnect=0;dashed=0;verticalLabelPosition=bottom;verticalAlign=top;align=center;html=1;shape=mxgraph.aws3.lambda;fillColor=#F58534;gradientColor=none;" vertex="1" parent="1">
          <mxGeometry x="303.25" y="317.5" width="76.5" height="93" as="geometry" />
        </mxCell>
        <mxCell id="_dEcuWrICsj82m9I1x2D-28" value="" style="outlineConnect=0;dashed=0;verticalLabelPosition=bottom;verticalAlign=top;align=center;html=1;shape=mxgraph.aws3.lambda;fillColor=#F58534;gradientColor=none;" vertex="1" parent="1">
          <mxGeometry x="303.25" y="427.5" width="76.5" height="93" as="geometry" />
        </mxCell>
        <mxCell id="_dEcuWrICsj82m9I1x2D-29" value="" style="outlineConnect=0;dashed=0;verticalLabelPosition=bottom;verticalAlign=top;align=center;html=1;shape=mxgraph.aws3.lambda;fillColor=#F58534;gradientColor=none;" vertex="1" parent="1">
          <mxGeometry x="303.25" y="547.5" width="76.5" height="93" as="geometry" />
        </mxCell>
        <mxCell id="_dEcuWrICsj82m9I1x2D-30" value="" style="sketch=0;points=[[0,0,0],[0.25,0,0],[0.5,0,0],[0.75,0,0],[1,0,0],[0,1,0],[0.25,1,0],[0.5,1,0],[0.75,1,0],[1,1,0],[0,0.25,0],[0,0.5,0],[0,0.75,0],[1,0.25,0],[1,0.5,0],[1,0.75,0]];outlineConnect=0;fontColor=#232F3E;fillColor=#C925D1;strokeColor=#ffffff;dashed=0;verticalLabelPosition=bottom;verticalAlign=top;align=center;html=1;fontSize=12;fontStyle=0;aspect=fixed;shape=mxgraph.aws4.resourceIcon;resIcon=mxgraph.aws4.documentdb_with_mongodb_compatibility;" vertex="1" parent="1">
          <mxGeometry x="788.5" y="391.5" width="78" height="78" as="geometry" />
        </mxCell>
        <mxCell id="_dEcuWrICsj82m9I1x2D-31" value="IAM&lt;div&gt;Autenticación&amp;nbsp;&lt;/div&gt;" style="outlineConnect=0;dashed=0;verticalLabelPosition=bottom;verticalAlign=top;align=center;html=1;shape=mxgraph.aws3.iam;fillColor=#759C3E;gradientColor=none;" vertex="1" parent="1">
          <mxGeometry x="538.5" y="466.5" width="42" height="81" as="geometry" />
        </mxCell>
        <mxCell id="_dEcuWrICsj82m9I1x2D-32" value="API GW" style="text;html=1;align=center;verticalAlign=middle;resizable=0;points=[];autosize=1;strokeColor=none;fillColor=none;" vertex="1" parent="1">
          <mxGeometry x="58" y="380.5" width="70" height="30" as="geometry" />
        </mxCell>
        <mxCell id="_dEcuWrICsj82m9I1x2D-33" value="QuickSight" style="sketch=0;points=[[0,0,0],[0.25,0,0],[0.5,0,0],[0.75,0,0],[1,0,0],[0,1,0],[0.25,1,0],[0.5,1,0],[0.75,1,0],[1,1,0],[0,0.25,0],[0,0.5,0],[0,0.75,0],[1,0.25,0],[1,0.5,0],[1,0.75,0]];outlineConnect=0;fontColor=#232F3E;fillColor=#8C4FFF;strokeColor=#ffffff;dashed=0;verticalLabelPosition=bottom;verticalAlign=top;align=center;html=1;fontSize=12;fontStyle=0;aspect=fixed;shape=mxgraph.aws4.resourceIcon;resIcon=mxgraph.aws4.quicksight;" vertex="1" parent="1">
          <mxGeometry x="788.5" y="713" width="78" height="78" as="geometry" />
        </mxCell>
        <mxCell id="_dEcuWrICsj82m9I1x2D-34" value="" style="edgeStyle=orthogonalEdgeStyle;html=1;endArrow=open;elbow=vertical;startArrow=none;endFill=0;strokeColor=#545B64;rounded=0;fontSize=14;strokeWidth=2;entryX=0.5;entryY=0;entryDx=0;entryDy=0;entryPerimeter=0;" edge="1" parent="1" source="_dEcuWrICsj82m9I1x2D-1" target="_dEcuWrICsj82m9I1x2D-33">
          <mxGeometry x="-0.037" y="20" width="100" relative="1" as="geometry">
            <mxPoint x="580.5" y="639" as="sourcePoint" />
            <mxPoint x="850.5" y="639" as="targetPoint" />
            <mxPoint as="offset" />
          </mxGeometry>
        </mxCell>
        <mxCell id="_dEcuWrICsj82m9I1x2D-35" value="Request data" style="edgeLabel;html=1;align=center;verticalAlign=middle;resizable=0;points=[];" vertex="1" connectable="0" parent="_dEcuWrICsj82m9I1x2D-34">
          <mxGeometry x="-0.085" y="-1" relative="1" as="geometry">
            <mxPoint as="offset" />
          </mxGeometry>
        </mxCell>
        <mxCell id="_dEcuWrICsj82m9I1x2D-36" value="4" style="rounded=1;whiteSpace=wrap;html=1;fillColor=#007CBD;strokeColor=none;fontColor=#FFFFFF;fontStyle=1;fontSize=22;labelBackgroundColor=none;" vertex="1" parent="1">
          <mxGeometry x="803.5" y="285" width="40" height="38" as="geometry" />
        </mxCell>
        <mxCell id="_dEcuWrICsj82m9I1x2D-37" value="5" style="rounded=1;whiteSpace=wrap;html=1;fillColor=#007CBD;strokeColor=none;fontColor=#FFFFFF;fontStyle=1;fontSize=22;labelBackgroundColor=none;" vertex="1" parent="1">
          <mxGeometry x="866.5" y="575" width="40" height="38" as="geometry" />
        </mxCell>
        <mxCell id="_dEcuWrICsj82m9I1x2D-38" value="6" style="rounded=1;whiteSpace=wrap;html=1;fillColor=#007CBD;strokeColor=none;fontColor=#FFFFFF;fontStyle=1;fontSize=22;labelBackgroundColor=none;" vertex="1" parent="1">
          <mxGeometry x="712.5" y="741" width="40" height="38" as="geometry" />
        </mxCell>
      </root>
    </mxGraphModel>
  </diagram>
</mxfile>
